<?xml version="1.0" standalone="no"?>
<!DOCTYPE svg PUBLIC "-//W3C//DTD SVG 20010904//EN"
 "http://www.w3.org/TR/2001/REC-SVG-20010904/DTD/svg10.dtd">
<svg version="1.0" xmlns="http://www.w3.org/2000/svg"
 width="1000.000000pt" height="190.000000pt" viewBox="0 0 1000.000000 190.000000"
 preserveAspectRatio="xMidYMid meet">
<metadata>
Created by potrace 1.16, written by Peter Selinger 2001-2019
</metadata>
<g transform="translate(0.000000,190.000000) scale(0.100000,-0.100000)"
fill="#000000" stroke="none">
<path d="M6150 1688 c0 -117 3 -224 7 -236 6 -23 9 -23 77 -18 130 11 388 45
440 58 27 7 42 6 50 -2 17 -17 20 -188 6 -345 -9 -99 -9 -152 -2 -178 8 -29 8
-37 -3 -37 -7 0 -15 -6 -18 -12 -2 -7 -4 24 -5 69 0 93 -7 123 -28 123 -8 0
-14 5 -14 10 0 18 -35 10 -55 -12 -21 -25 -40 -151 -27 -175 5 -7 6 -29 4 -49
-3 -28 -12 -41 -38 -56 -42 -25 -50 -21 -46 23 4 43 -1 46 -88 45 -50 -1 -65
-4 -66 -16 -2 -29 -16 -50 -35 -50 -14 0 -19 -7 -20 -27 0 -25 -1 -26 -9 -8
-5 11 -9 40 -10 65 -2 36 -3 40 -9 20 l-7 -25 -8 23 c-9 27 -26 29 -26 2 0
-23 -31 -27 -76 -10 -22 9 -29 8 -36 -5 -13 -22 -26 -19 -30 7 -2 18 -10 23
-45 25 -37 2 -43 0 -43 -17 0 -11 -4 -20 -10 -20 -5 0 -10 9 -10 20 0 26 -22
26 -38 -1 -13 -20 -14 -20 -33 -3 -15 13 -19 14 -19 3 0 -11 -2 -11 -10 1 -9
13 -11 13 -20 0 -8 -13 -10 -12 -10 3 0 15 -3 16 -21 7 -15 -9 -28 -9 -49 0
-23 9 -44 9 -105 -4 -55 -11 -133 -16 -269 -16 -105 0 -197 -4 -205 -9 -14 -9
4 -11 304 -28 122 -8 130 -9 127 -28 -2 -11 -7 -22 -10 -25 -17 -12 -27 -48
-24 -82 4 -48 22 -50 22 -3 0 21 5 35 13 35 8 0 8 3 -2 9 -45 29 96 66 147 40
15 -8 30 -18 33 -23 4 -5 71 -10 150 -11 79 -1 151 -5 159 -8 40 -14 57 -17
128 -23 43 -3 122 -12 177 -20 55 -8 142 -20 193 -26 86 -10 93 -13 90 -32 -3
-20 1 -21 70 -18 l73 2 20 -46 c10 -26 33 -64 50 -85 l31 -39 -69 -1 c-76 0
-119 -11 -90 -22 9 -3 17 -17 17 -30 0 -26 13 -32 137 -62 35 -9 77 -24 95
-34 18 -11 57 -22 86 -26 52 -7 66 -18 37 -29 -26 -10 -16 -26 18 -27 25 0 28
-2 13 -8 -25 -9 -13 -17 56 -37 28 -9 62 -23 75 -31 29 -19 125 -43 175 -43
20 0 43 -6 51 -14 9 -9 19 -11 28 -5 25 16 85 10 109 -11 27 -24 52 -26 44 -5
-5 12 3 15 35 15 23 0 41 5 41 10 0 18 55 11 72 -9 9 -11 14 -22 11 -25 -4 -3
1 -6 10 -6 10 0 17 -4 17 -9 0 -6 -17 -9 -37 -7 -36 2 -161 -19 -171 -29 -3
-3 148 -5 336 -5 258 1 342 4 345 13 4 9 6 9 6 0 1 -18 587 -19 594 -1 4 9 6
9 6 1 1 -16 268 -18 287 -2 8 6 14 22 14 36 0 14 4 21 10 18 6 -3 10 -19 10
-36 0 -28 1 -29 49 -29 36 0 51 4 55 16 4 10 14 14 26 11 11 -3 20 -2 20 3 0
12 43 6 47 -7 2 -6 -6 -13 -19 -16 -21 -4 -21 -4 4 -6 20 -1 28 5 36 28 8 22
7 31 -1 34 -22 8 2 19 28 13 26 -7 35 -26 11 -26 -15 0 -29 -27 -21 -40 3 -4
48 -8 100 -9 l95 -2 0 31 c0 16 2 30 4 30 14 0 58 -21 53 -26 -3 -3 -15 -1
-26 6 -19 9 -21 8 -21 -15 0 -16 6 -25 15 -25 8 0 15 4 15 10 0 6 10 5 26 -2
20 -10 27 -9 34 2 5 8 7 17 4 21 -2 4 5 10 16 14 11 3 20 11 20 16 0 5 7 9 15
9 10 0 15 -10 15 -27 0 -21 -3 -24 -9 -14 -8 12 -12 12 -25 -2 -24 -24 -20
-27 29 -27 43 0 45 1 35 20 -9 17 -8 20 7 20 10 0 25 -5 33 -10 13 -9 13 -11
0 -20 -13 -8 -12 -10 3 -10 15 0 17 14 17 154 0 114 -3 156 -12 160 -10 5 -10
7 0 12 6 3 12 12 12 20 0 10 -15 14 -59 14 -39 0 -63 5 -71 15 -14 17 8 25 82
28 46 2 48 3 48 33 0 30 -3 32 -42 38 -24 3 -83 8 -133 11 -49 4 -162 13 -250
21 -88 7 -234 18 -325 24 -91 6 -208 15 -260 20 -52 5 -162 14 -245 20 -82 5
-169 13 -192 16 -43 6 -54 -4 -35 -32 4 -7 125 -22 312 -38 168 -14 325 -28
349 -30 24 -2 46 -8 50 -14 3 -5 15 -12 26 -15 13 -3 9 -5 -13 -6 -50 -2 -162
-25 -162 -33 0 -5 -11 -8 -24 -8 -13 0 -33 -3 -43 -8 -14 -5 -9 -8 22 -13 31
-5 27 -6 -17 -4 -32 2 -61 -1 -64 -6 -3 -5 -15 -9 -27 -9 -13 0 -17 -3 -10 -8
6 -4 -8 -7 -30 -8 -23 -1 -82 -16 -132 -33 -49 -18 -99 -34 -110 -36 -11 -1
-33 -8 -48 -14 -16 -6 -38 -11 -51 -11 -25 0 -70 -45 -61 -61 4 -5 -2 -12 -12
-15 -10 -3 -26 -10 -35 -15 -33 -17 -29 -9 22 41 30 29 53 62 56 80 5 24 11
30 33 30 49 0 67 45 36 86 -12 15 -16 16 -24 5 -6 -9 -11 -10 -15 -2 -11 17
18 43 32 29 8 -8 9 -5 5 11 -3 13 -11 20 -19 17 -8 -3 -11 0 -8 8 3 7 -2 18
-10 25 -12 10 -16 8 -21 -8 -3 -12 -11 -21 -18 -21 -6 0 -2 -7 9 -15 10 -8 14
-15 8 -15 -6 0 -34 25 -63 55 -30 31 -69 67 -87 82 -19 14 -34 29 -34 34 0 4
12 17 28 27 27 20 33 20 257 6 316 -19 817 -51 1008 -65 87 -6 160 -9 163 -6
3 3 1 83 -4 178 -4 96 -7 177 -5 182 2 4 26 7 54 7 l49 0 1 73 c2 67 26 -283
28 -400 l1 -53 40 0 40 0 0 548 0 549 -56 -5 -57 -5 5 127 4 126 -972 0 -971
0 -6 -37 c-5 -33 -4 -392 1 -644 l2 -77 33 8 c17 4 40 11 50 15 9 4 17 5 17 2
0 -8 -54 -31 -110 -48 -25 -7 -55 -19 -67 -27 -23 -14 -126 -8 -148 8 -5 4
-32 4 -60 0 -27 -4 -57 -5 -65 -3 -11 4 -12 2 -3 -4 10 -7 9 -15 -2 -37 -8
-16 -16 -42 -16 -60 -1 -17 -3 -23 -6 -13 -8 31 -19 18 -16 -20 1 -21 0 -30
-3 -20 -6 19 -19 22 -29 7 -3 -6 -19 -10 -36 -10 -22 0 -29 5 -29 19 0 12 -9
22 -22 26 -13 3 -45 16 -72 28 -35 16 -50 19 -53 10 -3 -7 -12 -9 -20 -6 -13
5 -15 2 -9 -13 18 -43 17 -51 -3 -57 -15 -4 -25 3 -41 31 -17 27 -18 37 -8 43
7 4 10 11 6 14 -16 17 -45 -37 -62 -115 -10 -47 -23 -95 -28 -107 -6 -12 -7
-34 -4 -49 11 -42 -14 -49 -40 -11 -50 74 -88 151 -72 144 10 -3 19 0 22 9 3
8 12 14 20 14 14 0 42 21 88 66 26 25 26 56 0 82 -18 17 -22 30 -18 48 4 16 2
24 -6 25 -7 0 19 8 57 18 91 22 135 48 133 77 -1 13 -6 20 -10 18 -12 -8 -9 8
8 41 8 16 12 40 9 53 -8 31 9 50 50 58 34 6 49 25 54 65 1 8 20 10 56 7 36 -3
55 -1 55 6 0 7 -15 10 -40 8 -26 -3 -49 2 -65 12 -28 18 -39 21 -30 6 3 -5 1
-10 -4 -10 -6 0 -28 -16 -50 -35 -21 -19 -44 -35 -50 -35 -7 0 -9 -5 -5 -12 6
-10 5 -10 -8 -1 -8 7 -17 10 -20 7 -4 -3 -21 2 -38 11 -18 9 -46 15 -61 13
-16 -3 -29 -1 -29 4 0 5 -4 6 -10 3 -6 -4 -10 5 -10 19 0 17 5 26 16 26 12 0
14 3 6 13 -6 7 -11 75 -11 157 -1 82 -6 146 -11 148 -6 2 -11 22 -12 45 l-1
42 -7 -45 -7 -45 -1 43 c-2 43 -21 60 -23 20 -1 -22 -1 -22 -9 2 -7 22 -8 21
-10 -15 l-3 -40 -7 40 -6 40 -6 -40 -5 -40 -1 38 c-2 46 -19 49 -25 5 l-4 -33
-3 35 -2 35 -8 -30 -8 -30 -1 28 c-1 35 -37 39 -44 5 l-4 -23 -2 23 c0 12 -5
22 -10 22 -5 0 -12 -10 -14 -22 -4 -22 -4 -22 -6 2 -1 20 -3 22 -11 10 -8 -13
-11 -13 -19 -1 -7 11 -10 10 -14 -5 -4 -16 -5 -17 -6 -1 -1 19 -21 24 -21 5 0
-9 -3 -10 -8 -2 -5 7 -112 12 -339 13 l-333 2 0 -213z m3570 125 c0 -17 -40
-72 -59 -83 -12 -6 -123 -46 -249 -89 -358 -124 -345 -118 -317 -154 10 -15
18 -17 32 -8 17 10 16 10 -4 11 -26 0 -38 16 -21 27 17 10 562 191 567 187 8
-6 -41 -73 -57 -78 -9 -3 -96 -26 -192 -51 -96 -26 -179 -51 -185 -57 -11 -12
-24 -15 203 43 89 23 165 39 169 35 4 -4 -4 -18 -18 -31 -19 -19 -48 -29 -139
-46 -63 -11 -128 -27 -145 -35 l-30 -14 40 6 c22 3 84 14 138 24 53 10 97 14
97 10 0 -20 -48 -45 -112 -57 -40 -8 -91 -18 -113 -23 -39 -9 -39 -9 11 -5 43
3 57 -1 95 -26 l44 -29 -120 0 -120 0 -54 50 c-68 62 -79 59 -14 -4 46 -43 47
-46 22 -46 -19 0 -41 16 -82 59 -58 61 -71 97 -44 119 7 6 119 54 248 106 129
52 270 110 314 130 84 37 95 41 95 29z m-135 -469 c10 -10 13 -24 9 -38 -7
-21 -7 -21 15 -1 13 11 20 27 18 37 -4 14 1 18 23 18 22 0 34 -8 50 -34 11
-19 26 -37 33 -40 7 -2 -5 -5 -26 -5 -23 -1 -36 3 -32 9 4 6 -5 10 -20 10 -14
0 -24 -4 -21 -9 4 -5 -30 -10 -76 -10 l-83 -1 0 40 0 40 47 0 c29 0 52 -6 63
-16z m-2529 -138 c-71 -126 -86 -163 -87 -212 l-2 -49 -6 40 -7 40 -8 -32
c-10 -44 16 -129 36 -117 5 3 8 2 7 -3 -2 -16 13 -53 21 -48 4 3 11 -7 14 -21
4 -14 17 -42 30 -62 46 -74 60 -97 60 -102 0 -3 10 -16 23 -30 30 -33 23 -36
-20 -8 -36 23 -46 38 -26 38 6 0 0 15 -13 33 -13 17 -39 58 -57 89 -21 37 -37
55 -46 52 -10 -4 -12 0 -7 18 5 22 5 22 -12 6 -16 -16 -28 -21 -88 -33 -28 -5
-21 23 14 61 22 23 34 30 39 22 5 -7 11 -9 14 -6 4 4 3 12 -1 20 -11 18 -5 85
13 143 18 57 49 122 101 213 33 57 37 61 40 38 2 -17 -10 -51 -32 -90z m2065
-76 c10 -6 19 -16 19 -23 0 -9 11 -12 34 -9 18 2 37 -1 40 -7 5 -7 12 -7 25 1
22 14 51 4 51 -17 0 -9 -9 -15 -22 -15 -22 -1 -22 -1 -4 -15 23 -18 16 -29
-13 -20 -12 4 -21 15 -22 28 -1 22 -1 22 -7 -1 -9 -32 -26 -29 -31 5 l-4 28
-6 -29 c-7 -35 -23 -37 -33 -4 -4 16 -6 18 -7 5 -1 -9 -12 -23 -26 -29 -49
-22 -84 40 -49 90 17 25 27 27 55 12z m229 -20 c0 -11 7 -20 15 -20 8 0 15 8
15 18 0 14 9 18 45 20 49 2 55 -3 28 -24 -17 -13 -17 -13 0 -14 9 0 17 -4 17
-10 0 -5 -8 -14 -17 -19 -16 -9 -15 -10 8 -11 22 0 28 7 38 40 16 54 38 52 53
-5 15 -57 28 -58 28 -1 l0 45 70 0 c39 0 70 -4 70 -9 0 -6 -4 -10 -10 -10 -5
0 -10 -21 -10 -46 0 -32 -4 -44 -12 -41 -7 2 -14 15 -15 28 0 13 -1 32 -2 42
-1 9 -5 17 -10 17 -14 0 -20 -40 -11 -66 14 -35 -13 -32 -30 4 l-14 27 -4 -26
c-2 -21 -9 -27 -30 -27 -15 0 -30 5 -34 12 -5 8 -13 7 -29 -2 -18 -12 -23 -12
-30 0 -6 9 -9 10 -9 1 0 -8 -15 -12 -45 -11 -40 2 -45 5 -45 25 0 14 -6 23
-15 23 -9 0 -15 -10 -15 -26 0 -49 -25 -19 -28 34 -2 42 0 52 12 52 9 0 16 -9
16 -20z m-996 -35 c-7 -16 -16 -20 -104 -36 -36 -6 -69 -17 -75 -24 -11 -13
-60 -24 -155 -35 -36 -4 -60 -8 -55 -9 19 -3 -40 -30 -67 -31 -15 0 -29 -4
-32 -9 -3 -5 -22 -12 -41 -15 -20 -4 -33 -11 -30 -15 4 -7 -9 -17 -35 -26 -66
-23 -36 -35 81 -34 91 1 146 -12 163 -39 9 -15 -58 -10 -76 6 -13 11 -18 11
-18 3 0 -27 -30 -43 -68 -37 -20 4 -67 10 -104 14 -67 7 -97 25 -98 59 0 11
196 113 216 113 3 0 22 7 42 16 21 9 51 22 69 29 17 8 105 26 195 41 90 14
170 30 178 35 20 11 20 11 14 -6z m-522 -648 c-9 -10 -4 -17 21 -32 18 -10 43
-29 56 -41 24 -22 50 -37 85 -48 11 -4 16 -12 12 -21 -6 -17 19 -21 29 -5 10
16 18 12 54 -32 l35 -41 -40 7 c-21 5 -42 12 -45 18 -4 6 -11 8 -16 5 -5 -3
-41 1 -79 9 -38 7 -83 14 -100 14 -18 0 -38 8 -48 19 -10 11 -31 23 -47 26
-16 4 -29 8 -29 10 0 16 38 67 72 97 41 35 63 43 40 15z"/>
<path d="M2090 1871 c-21 -6 -25 -13 -27 -47 -4 -69 55 -110 123 -85 28 10 38
9 61 -4 26 -16 27 -16 6 0 -45 34 -66 55 -55 55 7 0 12 6 12 13 -1 37 -75 79
-120 68z"/>
<path d="M1254 1765 c-34 -64 -37 -77 -26 -95 6 -11 12 -29 12 -40 0 -18 7
-20 59 -20 l59 0 7 49 c7 55 -1 95 -17 85 -7 -4 -8 -2 -4 4 7 12 -32 92 -44
92 -4 0 -24 -34 -46 -75z"/>
<path d="M2885 1769 c-8 -12 -10 -11 35 -39 19 -12 28 -20 20 -17 -19 5 -52
-11 -45 -23 3 -4 -12 -22 -34 -39 -21 -17 -41 -41 -45 -54 -5 -23 -9 -24 -88
-20 -46 2 -119 8 -163 13 -44 5 -102 8 -129 7 -45 -2 -50 0 -57 23 -6 23 -7
23 -8 -7 -1 -22 -6 -33 -16 -33 -9 0 -15 -9 -15 -21 0 -12 -8 -23 -20 -26 -11
-3 -20 -12 -20 -19 0 -8 -5 -14 -11 -14 -5 0 -7 5 -3 12 5 8 -4 9 -32 5 -21
-4 -47 -7 -56 -7 -23 0 -25 -45 -2 -54 8 -3 12 -2 9 4 -6 9 31 21 116 39 24 5
54 13 66 16 19 6 21 3 19 -19 -4 -30 -16 -48 -16 -23 0 12 -8 17 -26 17 l-26
0 19 -32 c18 -31 24 -33 94 -41 48 -5 98 -4 143 4 40 6 97 9 136 5 50 -5 78
-3 103 7 21 9 40 11 48 6 19 -12 29 -11 29 1 0 6 -7 10 -16 10 -8 0 -12 5 -9
10 4 6 12 7 18 4 7 -4 8 -3 4 1 -4 5 -20 11 -35 13 -27 3 -45 20 -36 34 3 4
16 5 30 2 36 -9 30 13 -11 38 -43 25 -40 48 13 94 32 28 38 30 60 18 38 -20
55 -7 48 35 -8 53 -72 102 -91 70z"/>
<path d="M4274 1377 c-2 -7 -3 -67 -2 -133 l3 -119 253 -3 253 -2 -3 132 -3
133 -248 3 c-198 2 -249 0 -253 -11z m496 -122 l0 -125 -245 0 -245 0 0 125 0
125 245 0 245 0 0 -125z"/>
<path d="M4354 1307 c-3 -8 -4 -36 -2 -63 l3 -49 125 -3 c83 -2 121 1 115 7
-6 6 -57 12 -114 13 -73 2 -106 7 -109 16 -3 9 22 12 101 12 113 0 132 8 125
52 -3 22 -6 23 -121 26 -94 2 -118 0 -123 -11z"/>
<path d="M6024 1377 c-2 -7 -3 -67 -2 -133 l3 -119 253 -3 252 -2 0 135 0 135
-250 0 c-197 0 -252 -3 -256 -13z m496 -122 l0 -125 -245 0 -245 0 0 125 0
125 245 0 245 0 0 -125z"/>
<path d="M6100 1301 c-5 -11 -10 -32 -10 -46 0 -60 10 -65 135 -65 65 0 116 4
120 10 4 6 -33 10 -104 10 -67 0 -112 4 -116 11 -12 19 5 23 98 20 107 -2 134
9 123 52 l-6 27 -115 0 c-103 0 -115 -2 -125 -19z"/>
<path d="M2521 1329 c-1 -9 24 -72 55 -135 30 -63 35 -195 8 -225 -9 -10 -18
-37 -21 -61 -3 -24 -27 -90 -54 -147 -32 -68 -49 -117 -49 -142 0 -52 -38 -51
-80 3 -20 26 -21 31 -9 107 14 90 22 97 110 92 45 -3 45 -2 58 37 14 42 9 62
-15 62 -14 0 -18 12 -15 39 2 10 -3 9 -21 -3 -27 -19 -58 -21 -58 -3 0 9 -2 9
-8 -1 -12 -18 -34 10 -56 69 -23 63 -42 78 -117 89 -35 5 -118 18 -184 29
-148 25 -218 27 -236 5 -15 -18 -4 -28 48 -43 18 -5 76 -43 130 -85 54 -41
109 -84 122 -94 l24 -19 -22 -29 c-12 -17 -26 -57 -31 -94 -14 -84 -25 -113
-61 -144 -54 -48 -44 -54 163 -105 215 -53 220 -53 247 2 12 24 21 61 21 83 0
29 20 77 77 189 74 145 77 153 80 230 3 79 3 81 -51 190 -30 61 -55 107 -55
104z"/>
<path d="M3276 1306 c3 -8 1 -17 -5 -21 -13 -8 -15 -55 -2 -55 5 0 7 -8 5 -17
-5 -17 9 -18 161 -21 107 -1 165 1 165 8 0 6 -47 10 -124 10 -119 0 -124 1
-119 20 5 18 15 20 117 22 61 2 110 7 108 12 -1 4 -57 8 -125 8 -67 -1 -116 1
-109 4 18 8 15 24 -5 26 -10 1 45 5 122 8 l140 6 -167 2 c-140 2 -166 0 -162
-12z"/>
<path d="M3663 1313 c-31 -4 -33 -7 -33 -41 0 -56 10 -82 31 -82 14 0 19 8 20
28 2 51 4 57 17 56 39 -3 45 -5 39 -10 -6 -6 62 -74 75 -74 3 0 20 11 37 25
19 17 28 32 25 43 -5 13 -4 14 4 3 11 -15 36 -6 27 10 -12 18 21 9 38 -11 21
-25 21 -30 0 -46 -17 -12 -17 -13 0 -19 33 -13 44 1 46 63 l2 60 -36 0 c-19 0
-35 -3 -35 -7 0 -3 -18 -17 -40 -31 -27 -17 -36 -28 -30 -36 7 -8 1 -11 -22
-12 -23 -1 -42 9 -70 33 -25 23 -43 32 -55 28 -12 -5 -15 -2 -10 10 3 9 5 16
4 15 -1 0 -17 -3 -34 -5z"/>
<path d="M5026 1258 l1 -63 157 -2 c91 -1 156 2 156 8 0 5 -50 9 -115 9 -98 0
-117 3 -122 16 -4 11 1 22 12 30 17 13 17 14 2 14 -10 0 -17 8 -17 20 0 18 8
20 123 23 117 3 115 3 -39 5 l-160 2 2 -62z"/>
<path d="M0 961 l0 -321 42 -7 c32 -5 38 -8 23 -13 -17 -6 -15 -8 12 -14 18
-4 40 -3 50 3 10 6 12 11 6 11 -22 0 -14 28 10 33 15 3 12 5 -11 6 -29 1 -31
3 -19 15 8 8 27 16 43 18 21 2 28 8 26 21 -2 11 4 17 15 17 10 0 28 3 39 6 17
4 22 0 26 -20 6 -30 7 -30 -26 -15 -20 9 -28 9 -40 -4 -19 -19 -22 -107 -4
-125 8 -8 8 -12 1 -12 -6 0 -16 7 -23 15 -7 8 -20 15 -30 15 -24 0 -14 -41 11
-47 26 -7 13 -23 -17 -23 -14 0 -23 -4 -19 -10 9 -14 -3 -47 -20 -54 -9 -3
-12 0 -9 9 5 12 0 12 -26 -1 -29 -15 -32 -15 -45 2 -13 17 -14 17 -15 2 0 -9
6 -19 13 -22 10 -5 10 -7 0 -12 -7 -3 -13 -15 -12 -27 l0 -22 11 22 c6 12 17
24 24 27 11 4 11 -1 -2 -25 l-16 -31 54 6 c36 3 45 3 28 -3 -14 -5 -42 -9 -62
-10 l-38 -1 0 -85 0 -85 161 0 160 0 192 54 c106 29 230 64 277 76 47 12 121
33 165 45 194 55 262 74 295 80 19 4 103 27 185 51 186 55 172 51 220 63 55
14 57 14 50 -9 -5 -15 0 -23 19 -32 22 -9 26 -18 26 -55 0 -36 -3 -44 -17 -42
-34 3 -78 -1 -90 -9 -7 -4 -15 -22 -19 -39 -6 -29 -3 -33 42 -55 27 -13 93
-47 147 -76 54 -29 103 -50 109 -46 7 5 8 2 3 -6 -6 -10 -3 -12 13 -8 12 4 22
3 22 -1 0 -8 119 -31 164 -31 19 0 37 -4 40 -9 7 -10 49 -19 121 -27 51 -5 61
-7 195 -44 41 -12 103 -28 137 -35 34 -8 70 -18 80 -23 10 -5 24 -7 31 -5 6 3
12 0 12 -6 0 -8 72 -11 247 -9 l248 3 35 69 c34 68 35 71 35 190 0 103 -4 131
-25 191 -16 45 -30 69 -39 67 -8 -2 -11 3 -8 11 3 8 -3 28 -14 46 -15 25 -25
31 -51 31 -18 0 -63 8 -100 17 -60 15 -70 16 -82 3 -20 -22 -46 -108 -46 -152
0 -43 -3 -45 -30 -21 -21 20 -70 180 -70 229 0 40 66 104 106 104 25 0 26 2
21 38 -6 35 -5 36 9 17 8 -11 17 -30 21 -43 8 -33 26 -22 38 22 8 34 7 41 -14
58 -21 16 -22 22 -12 44 13 28 15 71 3 76 -4 2 -17 35 -30 74 -21 66 -58 124
-80 124 -5 0 6 -16 24 -36 38 -40 43 -58 14 -50 -11 3 -29 9 -41 12 -15 4 -18
9 -10 17 14 14 14 27 1 27 -5 0 -10 -7 -10 -16 0 -8 -5 -12 -11 -9 -5 4 5 -13
23 -37 18 -25 35 -41 36 -36 7 16 40 8 45 -11 6 -26 -3 -34 -22 -18 -13 10
-12 7 2 -15 17 -27 13 -34 -15 -29 -5 0 -8 -11 -8 -26 0 -48 -11 -73 -32 -73
-25 0 -57 -17 -90 -48 -32 -29 -34 -45 -13 -86 9 -16 22 -57 30 -90 29 -130
47 -193 65 -231 22 -50 49 -138 44 -147 -2 -3 -15 -1 -29 5 -20 9 -22 14 -12
21 11 7 7 26 -20 100 -19 50 -40 105 -47 121 -8 17 -17 57 -21 89 -4 33 -13
70 -21 82 -8 12 -14 26 -13 30 3 20 -2 44 -9 44 -20 0 -262 -456 -262 -494 0
-8 -6 -17 -13 -20 -6 -4 26 -4 73 -1 47 3 97 5 112 5 19 0 40 13 68 42 38 40
40 41 40 17 0 -50 36 -163 78 -241 2 -4 -61 16 -140 43 -79 28 -151 52 -161
54 -9 2 -23 7 -30 12 -6 4 -24 6 -39 4 -16 -1 -28 2 -28 8 0 6 -18 14 -40 17
-43 7 -65 24 -31 24 29 0 26 9 -22 61 -40 43 -52 49 -170 84 l-127 38 -23 -21
c-13 -12 -31 -22 -40 -22 -22 0 -48 40 -45 71 2 22 -28 98 -43 109 -3 3 -12
23 -19 45 -7 22 -23 59 -35 82 -31 57 -40 100 -25 119 10 11 10 18 -4 32 -9
10 -16 24 -16 31 0 8 -6 11 -16 7 -8 -3 -12 -2 -9 4 3 6 2 10 -4 10 -18 0 -1
26 29 44 17 9 30 24 30 33 0 9 6 13 15 9 8 -3 15 -1 15 4 0 6 -9 10 -20 10
-11 0 -20 5 -20 11 0 12 -49 59 -61 59 -11 0 -38 -47 -31 -54 12 -13 0 -80
-16 -93 -14 -10 -15 -12 -2 -13 13 0 13 -2 1 -9 -8 -5 -11 -16 -8 -24 7 -18
-11 -37 -28 -30 -7 2 -16 -5 -20 -16 -10 -34 -27 -12 -23 29 3 36 1 39 -25 43
-19 2 -31 -1 -35 -11 -4 -12 -7 -12 -19 4 -16 23 -17 35 0 29 9 -4 12 6 12 35
0 39 0 40 -36 40 -32 0 -36 -3 -32 -20 4 -17 0 -20 -23 -20 -45 0 -59 -13 -43
-39 8 -11 21 -21 30 -21 21 0 42 -41 36 -71 -4 -22 -4 -22 -6 4 -2 38 -21 34
-22 -5 0 -18 -3 -27 -6 -20 -7 19 -34 -21 -38 -56 -1 -14 -8 -28 -14 -30 -6
-2 -11 -10 -11 -18 0 -23 -25 -11 -31 16 -4 14 -8 45 -9 70 -1 25 -4 39 -7 33
-5 -13 -33 -19 -33 -7 0 3 5 14 10 25 9 16 7 19 -8 19 -29 0 -48 -26 -32 -45
9 -10 9 -15 1 -16 -25 -3 -30 -4 -35 -10 -8 -7 20 -75 34 -84 21 -13 10 -33
-17 -32 -33 2 -53 19 -53 44 0 13 -9 19 -34 20 -30 3 -33 1 -28 -22 3 -18 0
-25 -12 -25 -10 0 -16 9 -16 25 0 31 -20 33 -21 3 -1 -17 -2 -19 -6 -5 -4 15
-10 19 -29 16 -4 0 -14 11 -23 25 -13 20 -20 23 -29 14 -9 -9 -12 -8 -12 5 0
9 5 17 11 17 5 0 7 5 4 10 -4 6 -15 8 -26 5 -11 -4 -19 -2 -19 4 0 6 -9 11
-20 11 -26 0 -26 -20 1 -27 12 -4 18 -11 15 -20 -3 -8 -6 -18 -6 -21 0 -4 -5
0 -10 8 -6 10 -10 11 -10 3 0 -7 -7 -13 -16 -13 -11 0 -15 6 -11 20 3 11 1 23
-4 26 -5 3 -9 14 -9 25 0 11 -7 22 -15 25 -27 11 -16 23 28 29 l44 7 1 145 0
145 -54 -4 c-30 -2 -54 -2 -54 1 0 3 -50 7 -112 9 -116 3 -151 11 -108 23 17
5 6 8 -37 9 -94 4 -101 4 -109 13 -4 4 -37 7 -74 7 -36 0 -115 6 -176 14 -60
8 -144 17 -186 21 l-78 7 0 -321z m730 -86 c7 -8 16 -12 22 -9 5 3 24 -6 43
-20 35 -27 55 -33 55 -16 0 6 7 10 15 10 8 0 15 -3 15 -7 -1 -16 -49 -53 -68
-53 -15 0 -19 -5 -15 -19 3 -10 0 -22 -6 -25 -14 -9 -15 -46 -1 -46 5 0 8 -17
6 -37 -2 -21 -2 -32 1 -25 10 25 33 -9 33 -49 0 -47 -12 -51 -25 -7 -11 35
-29 47 -38 24 -4 -10 -1 -13 9 -9 10 4 14 -2 14 -21 0 -44 -27 -31 -34 17 -10
65 -26 120 -41 141 -13 18 -15 18 -32 1 -16 -17 -16 -17 5 -11 16 5 22 3 22
-8 0 -11 -13 -16 -47 -19 -47 -3 -47 -3 10 -5 50 -2 57 -5 57 -22 0 -23 -15
-27 -24 -5 -3 10 -14 13 -33 10 -42 -8 -119 9 -115 25 2 7 -3 17 -10 22 -11 6
-10 10 1 17 10 6 3 8 -22 6 -20 -2 -40 1 -43 7 -4 6 -12 1 -20 -13 -16 -29
-18 -49 -4 -49 6 0 10 9 10 20 0 21 14 27 24 11 3 -5 15 -7 26 -4 11 3 20 1
20 -5 0 -6 -12 -12 -27 -14 -24 -3 -29 -9 -36 -45 -10 -50 -36 -60 -28 -11 0
4 -10 10 -24 14 -14 3 -22 10 -19 16 3 5 11 7 18 5 6 -3 12 4 12 14 0 24 0 24
-32 -8 l-26 -28 6 27 c8 35 -12 78 -36 78 -23 0 -24 20 0 21 16 1 16 2 0 6
-24 6 -23 23 1 23 10 0 24 7 31 15 7 8 18 15 25 15 8 0 15 5 17 12 3 8 25 12
67 10 35 -1 69 2 75 7 17 14 56 2 57 -18 0 -13 2 -13 8 3 8 20 47 45 72 46 9
0 22 -7 29 -15z"/>
<path d="M3716 1091 c-5 -7 4 -11 26 -11 23 0 37 -7 46 -21 12 -19 14 -19 25
-4 11 15 15 14 37 -10 20 -21 22 -28 10 -35 -9 -5 -21 -3 -34 6 -27 19 -52 18
-60 -2 -5 -12 -9 -14 -20 -5 -15 13 -105 23 -120 14 -5 -4 -24 -7 -41 -7 -24
-1 -30 -5 -28 -21 1 -19 -12 -35 -31 -35 -4 0 -6 8 -4 18 3 10 -1 23 -9 30
-10 10 -13 10 -13 0 0 -10 -2 -10 -8 -1 -5 8 -8 -2 -9 -25 l-1 -37 13 30 13
30 1 -26 c1 -15 -6 -32 -14 -39 -13 -11 -18 -10 -30 6 -8 10 -15 22 -15 27 0
12 -30 8 -30 -5 0 -6 8 -20 18 -31 16 -19 16 -19 -3 -14 -11 3 -32 8 -47 11
-16 4 -28 11 -28 16 0 16 -60 11 -77 -5 -22 -23 -47 -14 -51 17 -2 15 -9 31
-15 36 -22 17 -71 21 -91 7 -10 -8 -23 -12 -29 -8 -5 3 -13 -1 -18 -8 -6 -10
-9 -6 -9 14 0 19 -5 27 -17 27 -14 0 -15 -2 -4 -9 7 -5 11 -13 7 -19 -3 -6 1
-17 9 -25 16 -16 21 -32 7 -23 -4 2 -7 -14 -7 -37 0 -23 -4 -55 -8 -70 l-8
-28 113 5 c150 7 339 14 587 21 188 6 206 8 219 26 15 21 37 26 29 6 -3 -9 6
-14 28 -15 29 -2 33 1 39 28 5 25 10 31 28 28 20 -3 23 2 26 39 4 51 -17 67
-78 57 -27 -4 -40 -3 -40 5 0 6 -4 11 -10 11 -5 0 -10 -7 -10 -15 0 -8 5 -15
10 -15 6 0 10 -7 10 -15 0 -8 -4 -15 -10 -15 -5 0 -10 6 -10 14 0 8 -6 16 -14
19 -8 3 -17 19 -21 36 -9 41 -26 50 -23 12 4 -36 -16 -42 -20 -6 -2 14 -8 25
-13 25 -5 0 -9 7 -9 15 0 8 -4 15 -9 15 -4 0 -6 -12 -3 -27 l5 -28 -24 22
c-28 25 -122 42 -133 24z"/>
<path d="M116 145 c-19 -19 -21 -56 -4 -73 7 -7 27 -12 46 -12 25 0 35 5 39
20 7 26 19 26 26 0 4 -15 14 -20 41 -20 41 0 60 25 50 65 -11 43 -80 47 -91 5
-7 -26 -16 -25 -28 3 -12 27 -56 34 -79 12z"/>
</g>
</svg>
